<svg fill="#86198f" version="1.1" id="Capa_1" xmlns="http://www.w3.org/2000/svg" xmlns:xlink="http://www.w3.org/1999/xlink" width="256px" height="256px" viewBox="-252.8 -252.8 1408.46 1408.46" xml:space="preserve" transform="matrix(-1, 0, 0, 1, 0, 0)rotate(0)" stroke="#86198f" stroke-width="0.009028600000000001"><g id="SVGRepo_bgCarrier" stroke-width="0" transform="translate(0,0), scale(1)"><path transform="translate(-252.8, -252.8), scale(88.02875)" fill="#ffffff" d="M9.166.33a2.25 2.25 0 00-2.332 0l-5.25 3.182A2.25 2.25 0 00.5 5.436v5.128a2.25 2.25 0 001.084 1.924l5.25 3.182a2.25 2.25 0 002.332 0l5.25-3.182a2.25 2.25 0 001.084-1.924V5.436a2.25 2.25 0 00-1.084-1.924L9.166.33z" strokewidth="0"></path></g><g id="SVGRepo_tracerCarrier" stroke-linecap="round" stroke-linejoin="round" stroke="#CCCCCC" stroke-width="32.50296"></g><g id="SVGRepo_iconCarrier"> <g> <g> <path d="M671.504,577.829l110.485-432.609H902.86v-68H729.174L703.128,179.2L0,178.697l74.753,399.129h596.751V577.829z M685.766,247.188l-67.077,262.64H131.199L81.928,246.756L685.766,247.188z"></path> <path d="M578.418,825.641c59.961,0,108.743-48.783,108.743-108.744s-48.782-108.742-108.743-108.742H168.717 c-59.961,0-108.744,48.781-108.744,108.742s48.782,108.744,108.744,108.744c59.962,0,108.743-48.783,108.743-108.744 c0-14.4-2.821-28.152-7.927-40.742h208.069c-5.107,12.59-7.928,26.342-7.928,40.742 C469.675,776.858,518.457,825.641,578.418,825.641z M209.46,716.897c0,22.467-18.277,40.744-40.743,40.744 c-22.466,0-40.744-18.277-40.744-40.744c0-22.465,18.277-40.742,40.744-40.742C191.183,676.155,209.46,694.432,209.46,716.897z M619.162,716.897c0,22.467-18.277,40.744-40.743,40.744s-40.743-18.277-40.743-40.744c0-22.465,18.277-40.742,40.743-40.742 S619.162,694.432,619.162,716.897z"></path> </g> </g> </g></svg>